<svg width="53" height="32" viewBox="0 0 53 32" fill="none" xmlns="http://www.w3.org/2000/svg">
<path d="M39.2467 32C47.3492 32 51.5031 28.4103 52.6826 21.5385L48.2723 20.5641C46.9903 25.7436 44.7851 28.0513 39.2467 28.0513C32.58 28.0513 29.9646 23.7436 29.9646 15.9487C29.9646 8.56411 32.4775 4.05128 39.4005 4.05128C44.3749 4.05128 46.7851 6.25641 47.9646 11.3333L52.3749 10.3077C51.2467 3.58974 47.0416 0 39.4518 0C30.2723 0 25.298 5.64103 25.298 15.9487C25.298 26.3077 29.8108 32 39.2467 32ZM11.3333 17.7436C5.94872 17.7436 4.5641 19.4872 4.5641 22.9231C4.5641 26.1538 6.61538 28.1026 10.9744 28.1026H19.5385V17.7436H11.3333ZM11.4872 4.05128C7.38461 4.05128 5.89743 5.53846 5.89743 9.17949C5.89743 13.0769 8.41026 14.5128 11.8462 14.5128H19.5385V4.05128H11.4872ZM24.2564 31.3846H10.9231C3.02564 31.3846 0 28.1026 0 23.0769C0 18.4615 2.87179 16.8718 9.02564 16.5128V15.4872C4.5641 14.8205 1.48718 12.8205 1.48718 8.46154C1.48718 3.07692 4.5641 0.615386 11.7436 0.615386H24.2564V31.3846Z" fill="#0F0602"/>
<path d="M39.2467 32C47.3492 32 51.5031 28.4103 52.6826 21.5385L48.2723 20.5641C46.9903 25.7436 44.7851 28.0513 39.2467 28.0513C32.58 28.0513 29.9646 23.7436 29.9646 15.9487C29.9646 8.56411 32.4775 4.05128 39.4005 4.05128C44.3749 4.05128 46.7851 6.25641 47.9646 11.3333L52.3749 10.3077C51.2467 3.58974 47.0416 0 39.4518 0C30.2723 0 25.298 5.64103 25.298 15.9487C25.298 26.3077 29.8108 32 39.2467 32ZM11.3333 17.7436C5.94872 17.7436 4.5641 19.4872 4.5641 22.9231C4.5641 26.1538 6.61538 28.1026 10.9744 28.1026H19.5385V17.7436H11.3333ZM11.4872 4.05128C7.38461 4.05128 5.89743 5.53846 5.89743 9.17949C5.89743 13.0769 8.41026 14.5128 11.8462 14.5128H19.5385V4.05128H11.4872ZM24.2564 31.3846H10.9231C3.02564 31.3846 0 28.1026 0 23.0769C0 18.4615 2.87179 16.8718 9.02564 16.5128V15.4872C4.5641 14.8205 1.48718 12.8205 1.48718 8.46154C1.48718 3.07692 4.5641 0.615386 11.7436 0.615386H24.2564V31.3846Z" stroke="#0F0602"/>
</svg>
